<?xml version="1.0" standalone="no"?>
<!DOCTYPE svg PUBLIC "-//W3C//DTD SVG 20010904//EN"
 "http://www.w3.org/TR/2001/REC-SVG-20010904/DTD/svg10.dtd">
<svg version="1.0" xmlns="http://www.w3.org/2000/svg"
 width="1600.000000pt" height="1600.000000pt" viewBox="0 0 1600.000000 1600.000000"
 preserveAspectRatio="xMidYMid meet">
<metadata>
Created by potrace 1.14, written by Peter Selinger 2001-2017
</metadata>
<g transform="translate(0.000000,1600.000000) scale(0.100000,-0.100000)"
fill="#000000" stroke="none">
<path d="M0 8000 l0 -8000 8000 0 8000 0 0 8000 0 8000 -8000 0 -8000 0 0
-8000z m15660 3940 l0 -3720 -3720 0 -3720 0 0 3718 c0 2045 2 3721 4 3723 2
2 1676 3 3720 1 l3716 -2 0 -3720z m-7880 -7878 c0 -2045 -2 -3721 -4 -3723
-2 -2 -1676 -3 -3720 -1 l-3716 2 0 3720 0 3720 3720 0 3720 0 0 -3718z m7881
3714 c2 -2 3 -1676 1 -3720 l-2 -3716 -3720 0 -3720 0 0 3720 0 3720 3718 0
c2045 0 3721 -2 3723 -4z"/>
<path d="M8985 15234 c-91 -22 -202 -90 -303 -186 -24 -23 -48 -52 -53 -65
-20 -52 17 -103 74 -103 21 0 46 16 93 58 144 130 266 174 385 138 93 -28 140
-66 169 -136 17 -41 2 -130 -42 -244 -39 -101 -73 -158 -156 -266 -95 -123
-192 -220 -317 -319 -118 -94 -185 -162 -185 -187 0 -30 30 -71 60 -84 21 -9
49 -10 88 -6 31 4 199 9 373 11 177 3 338 9 365 15 88 20 118 76 72 135 l-21
27 -93 -7 c-114 -8 -489 -12 -509 -5 -10 4 2 19 41 50 113 90 314 336 381 466
44 85 85 203 104 299 22 113 -7 209 -91 295 -55 57 -110 87 -205 111 -83 22
-148 23 -230 3z"/>
<path d="M12175 14290 c-175 -22 -276 -38 -360 -58 -172 -42 -310 -88 -453
-153 -35 -16 -65 -29 -67 -29 -14 0 -265 -154 -346 -212 -530 -379 -883 -961
-979 -1613 -72 -494 14 -1014 239 -1445 19 -36 41 -78 49 -95 8 -16 47 -77 85
-135 165 -248 347 -437 629 -650 15 -12 85 -56 155 -98 338 -205 732 -320
1154 -339 210 -9 470 17 587 58 29 11 63 19 76 19 23 0 109 23 151 40 11 5 31
12 45 16 65 18 233 101 266 131 21 20 24 28 19 75 -2 29 -9 143 -15 253 -10
195 -44 821 -75 1398 -9 158 -13 291 -11 296 13 20 -25 108 -61 142 -63 59
-86 64 -293 62 -487 -6 -870 -19 -881 -30 -8 -8 -8 -60 1 -204 6 -106 14 -197
17 -202 3 -5 124 -7 272 -6 146 1 325 -1 398 -6 l132 -8 5 -41 c3 -22 21 -347
41 -721 19 -374 36 -694 37 -710 3 -39 -6 -52 -39 -58 -16 -3 -64 -14 -108
-25 -318 -79 -609 -81 -942 -6 -462 103 -894 396 -1180 799 -27 39 -52 77 -56
85 -4 8 -21 38 -37 65 -94 155 -189 408 -229 610 -27 132 -34 213 -34 365 0
511 169 963 500 1342 314 359 774 600 1258 659 132 16 404 12 535 -7 57 -9
108 -18 113 -21 5 -3 36 -11 70 -19 34 -8 102 -26 150 -41 53 -16 91 -23 96
-17 5 5 4 98 -2 217 -10 170 -15 210 -28 217 -58 33 -418 97 -554 99 -38 1
-113 3 -165 5 -52 2 -126 0 -165 -4z"/>
<path d="M1025 7463 c-33 -14 -89 -47 -124 -73 -35 -27 -93 -62 -127 -80 -74
-37 -87 -51 -87 -90 0 -41 29 -70 70 -70 34 0 140 54 218 111 l40 30 3 -68 c2
-37 -1 -283 -7 -545 -6 -262 -8 -485 -4 -495 19 -56 84 -72 123 -31 18 20 20
36 22 177 1 86 3 183 4 216 1 33 5 246 9 473 l6 412 -30 30 c-36 36 -40 36
-116 3z"/>
<path d="M6136 6248 c-22 -37 -76 -150 -136 -283 -10 -22 -37 -85 -59 -140
-23 -55 -46 -109 -51 -120 -78 -168 -325 -866 -409 -1155 -12 -41 -29 -97 -38
-125 -9 -27 -21 -70 -28 -95 -8 -25 -23 -79 -35 -120 -12 -41 -31 -106 -41
-145 -11 -38 -29 -104 -40 -145 -12 -41 -27 -97 -34 -125 -8 -27 -25 -93 -40
-145 -35 -125 -83 -306 -105 -400 -11 -41 -42 -165 -69 -275 -28 -110 -51
-207 -51 -217 0 -10 -6 -18 -12 -18 -8 0 -60 141 -130 353 -434 1302 -572
1706 -633 1852 -18 44 -43 112 -55 152 -12 39 -28 74 -34 76 -19 8 -280 9
-299 1 -9 -3 -17 -14 -17 -23 -1 -19 -53 -168 -109 -311 -23 -58 -116 -325
-206 -595 -91 -269 -241 -717 -334 -995 -93 -277 -173 -506 -178 -507 -8 -3
-19 33 -48 157 -26 112 -167 656 -226 870 -12 41 -24 89 -29 105 -4 17 -20 73
-35 125 -15 52 -35 124 -45 160 -29 104 -87 302 -98 335 -6 17 -29 91 -52 165
-49 157 -148 454 -185 555 -14 39 -32 88 -39 110 -7 22 -18 51 -24 65 -6 14
-36 90 -68 170 -65 166 -56 146 -164 390 -102 233 -141 310 -162 323 -13 9
-25 3 -60 -28 -94 -84 -248 -236 -248 -245 0 -6 15 -41 34 -78 31 -62 123
-275 165 -381 10 -25 34 -84 54 -131 76 -185 260 -711 328 -940 11 -36 27 -87
35 -115 9 -27 24 -79 34 -115 10 -36 39 -137 64 -225 26 -87 51 -175 56 -195
4 -19 27 -102 50 -185 181 -657 333 -1296 381 -1601 6 -39 14 -76 17 -81 4 -6
63 -16 132 -22 69 -6 156 -16 195 -21 53 -7 72 -7 82 3 18 18 161 420 299 842
47 143 88 267 91 275 35 100 207 604 248 730 142 433 207 620 214 620 3 0 77
-213 164 -473 186 -559 528 -1575 561 -1667 61 -171 112 -307 122 -323 9 -16
17 -17 85 -8 41 6 128 16 194 22 137 13 140 15 150 99 6 48 25 142 80 410 37
178 130 556 215 875 126 470 169 627 215 785 20 69 41 141 47 160 63 224 288
898 328 985 5 11 12 31 16 45 6 23 25 71 60 147 8 17 14 34 14 38 0 4 7 21 14
38 8 18 31 72 52 122 39 96 63 150 126 285 l40 85 -104 100 c-57 55 -127 119
-155 143 l-52 43 -25 -43z"/>
</g>
</svg>
